<svg width="40" height="35" viewBox="0 0 40 35" fill="none" xmlns="http://www.w3.org/2000/svg">
<path d="M0 4C0 2.89543 0.89543 2 2 2H38C39.1046 2 40 2.89543 40 4V30C40 31.1046 39.1046 32 38 32H2C0.89543 32 0 31.1046 0 30V4Z" fill="url(#paint0_linear_204_14)"/>
<path fill-rule="evenodd" clip-rule="evenodd" d="M0 29V30C0 31.1046 0.89543 32 2 32V31C0.89543 31 0 30.1046 0 29ZM2 32H38C39.1046 32 40 31.1046 40 30V29C40 30.1046 39.1046 31 38 31H2V32Z" fill="#031C5A" fill-opacity="0.1"/>
<rect x="5" y="8" width="10" height="4" rx="2" fill="#232629"/>
<rect x="4.5" y="7.5" width="11" height="5" rx="2.5" stroke="black" stroke-opacity="0.1"/>
<rect x="25" y="8" width="10" height="4" rx="2" fill="#232629"/>
<rect x="24.5" y="7.5" width="11" height="5" rx="2.5" stroke="black" stroke-opacity="0.1"/>
<rect x="18" y="8" width="4" height="4" rx="2" fill="#232629"/>
<rect x="17.5" y="7.5" width="5" height="5" rx="2.5" stroke="black" stroke-opacity="0.1"/>
<rect x="5" y="15" width="10" height="4" rx="2" fill="#232629"/>
<rect x="4.5" y="14.5" width="11" height="5" rx="2.5" stroke="black" stroke-opacity="0.1"/>
<rect x="18" y="15" width="4" height="4" rx="2" fill="#232629"/>
<rect x="17.5" y="14.5" width="5" height="5" rx="2.5" stroke="black" stroke-opacity="0.1"/>
<rect x="5" y="22" width="4" height="4" rx="2" fill="#232629"/>
<rect x="4.5" y="21.5" width="5" height="5" rx="2.5" stroke="black" stroke-opacity="0.1"/>
<defs>
<linearGradient id="paint0_linear_204_14" x1="3.5" y1="2" x2="43.5" y2="42" gradientUnits="userSpaceOnUse">
<stop stop-color="#4AD8BC"/>
<stop offset="1" stop-color="#288A77"/>
</linearGradient>
</defs>
</svg>
